<?xml version="1.0" encoding="utf-8"?>
<!-- Generator: Adobe Illustrator 28.1.0, SVG Export Plug-In . SVG Version: 6.00 Build 0)  -->
<svg version="1.1" id="Layer_1" xmlns="http://www.w3.org/2000/svg" xmlns:xlink="http://www.w3.org/1999/xlink" x="0px" y="0px"
	 viewBox="0 0 55.2 38.4" style="enable-background:new 0 0 55.2 38.4;" xml:space="preserve">
<style type="text/css">
	.st0{fill:#DE2910;}
	.st1{fill:#FFDE00;}
</style>
<g>
	<path class="st0" d="M3,0h49.2c1.7,0,3,1.4,3,3v32.3c0,1.7-1.3,3-3,3L3,38.4c-1.6,0-3-1.4-3-3V3C0,1.4,1.4,0,3,0L3,0z"/>
	<polygon class="st1" points="12.2,4.5 18,22.3 2.9,11.3 21.6,11.3 6.5,22.3 	"/>
	<polygon class="st1" points="24.9,2.5 23.2,8.4 21.1,2.6 26.2,6 20.1,6.3 	"/>
	<polygon class="st1" points="30.9,10.9 27.1,15.7 27.4,9.6 30.7,14.7 25,12.5 	"/>
	<polygon class="st1" points="29.6,21.6 24.2,24.4 26.9,18.9 27.9,25 23.6,20.7 	"/>
	<polygon class="st1" points="20.6,24.5 19.2,30.4 16.8,24.8 22.1,28 16,28.5 	"/>
</g>
</svg>
