<?xml version="1.0" encoding="utf-8"?>
<!-- Generator: Adobe Illustrator 28.1.0, SVG Export Plug-In . SVG Version: 6.00 Build 0)  -->
<svg version="1.1" id="Слой_1" xmlns="http://www.w3.org/2000/svg" xmlns:xlink="http://www.w3.org/1999/xlink" x="0px" y="0px"
	 viewBox="0 0 100 100" style="fill:lightgrey" xml:space="preserve">

<style>

	.dot_1 {
		animation: change_d 1s 0ms infinite cubic-bezier(0.1, 0.7, 1, 1) ;
	}
	.dot_2 {
		animation: change_d 1s 200ms infinite cubic-bezier(0.1, 0.7, 1, 1) ;
	}
	.dot_3 {
		animation: change_d 1s 300ms infinite cubic-bezier(0.1, 0.7, 1, 1) ;
	}

	@keyframes change_d {
		0% {
			fill: transparent;
		}
		25% {
			fill: grey;
		}
		40% {
			fill: lightgrey;
		}
		60% {
			fill: lightgrey;
		}
		75% {
			fill: grey;
		}
		100% {
			fill: transparent;
		}
	}
	

</style>

<path d="M50,8.3C27.2,8.3,8.3,25,8.3,45.8S27.2,83.3,50,83.3c1.5,0,2.8-0.3,4.2-0.4v13.5l6.4-4.2c8.8-5.7,28.7-20.6,31-42.2l0-0.2
	v-4C91.7,25,72.8,8.3,50,8.3z M50,16.7c18.8,0,33.3,13.4,33.3,29.2v3.4c-1.5,13.3-12.3,23.7-20.8,30.5v-6.3l-4.9,0.8
	C55.2,74.6,52.5,75,50,75c-18.8,0-33.3-13.4-33.3-29.2S31.2,16.7,50,16.7z"/>
<rect class="dot_2" x="45.8" y="44" width="8.3" height="8.3"/>
<rect class="dot_1" x="29.2" y="44" width="8.3" height="8.3"/>
<rect class="dot_3" x="62.5" y="44" width="8.3" height="8.3"/>
</svg>
